<?xml version="1.0" encoding="UTF-8"?><svg id="a" xmlns="http://www.w3.org/2000/svg" viewBox="0 0 9.45 8"><path d="M4.28,5.47c0,.56-.45,1.01-1.01,1.01s-1.01-.45-1.01-1.01.45-1.01,1.01-1.01,1.01.45,1.01,1.01ZM5.77,2.43c0,.56-.45,1.01-1.01,1.01s-1.02-.45-1.02-1.01.45-1.01,1.02-1.01,1.01.45,1.01,1.01ZM7.27,5.5c0,.55-.45.99-1.01.99s-1.01-.44-1.01-.99.45-.99,1.01-.99,1.01.44,1.01.99Z" fill="#fff"/><path d="M7.27,7.53h1.09V.48h-1.09v-.48h2.18v8h-2.18v-.47Z" fill="#fff"/><path d="M2.18,7.53h-1.09V.48h1.09v-.48H0v8h2.18v-.47Z" fill="#fff"/></svg>