<?xml version="1.0" encoding="UTF-8"?><svg id="a" xmlns="http://www.w3.org/2000/svg" viewBox="0 0 453.95 200"><path d="M46.54,30.3h14.43c13.13,0,16.88,8.4,16.88,19v27.4c0,11.33-3.67,19.65-16.47,19.65h-14.84V30.3ZM61.13,92.84c10.68,0,12.23-7.67,12.23-16.63v-26.58c0-9.62-2.28-15.74-12.4-15.74h-10.03v58.96h10.19Z" fill="#fff"/><path d="M88.38,30.3h22.83v3.59h-18.35v26.5h15.09v3.43h-15.09v29.03h18.59v3.51h-23.08V30.3Z" fill="#fff"/><path d="M121.41,30.3h4.4l13.94,59.61,14.19-59.61h4.57l1.88,66.05h-3.83l-1.63-55.37-13.46,55.37h-3.26l-13.29-55.29-1.63,55.29h-3.83l1.96-66.05Z" fill="#fff"/><path d="M170.19,77.59v-28.87c0-11.25,3.75-19.16,16.31-19.16s16.31,7.99,16.31,19.16v28.95c0,11.25-3.43,19.57-16.31,19.57s-16.31-8.4-16.31-19.65ZM198.32,78.57v-30.5c0-8.97-2.28-14.84-11.83-14.84s-11.82,5.87-11.82,14.84v30.5c0,8.97,2.28,15.01,11.82,15.01s11.83-6.03,11.83-15.01Z" fill="#fff"/><path d="M212.03,77.35v-28.05c0-11.33,3.43-19.73,16.06-19.73,11.5,0,15.09,7.34,15.09,18.59v3.34h-4.24v-3.34c0-9.38-2.2-14.92-10.85-14.92-9.54,0-11.58,6.28-11.58,15.58v29.19c0,9.78,2.45,15.58,11.58,15.58s10.85-5.95,10.85-15.01v-4h4.24v3.26c0,11.34-3.18,19.41-15.09,19.41-13.05,0-16.06-8.89-16.06-19.9Z" fill="#fff"/><path d="M253.06,30.3h15.98c11.74,0,14.51,7.18,14.51,16.31,0,7.42-1.71,14.35-9.7,15.66l10.6,34.09h-4.4l-10.28-33.27h-12.31v33.27h-4.4V30.3ZM268.88,59.65c8.4,0,10.36-4.98,10.36-13.05s-2.12-12.8-10.44-12.8h-11.33v25.85h11.42Z" fill="#fff"/><path d="M304.6,30.3h5.14l13.94,66.05h-4.49l-3.42-18.27h-17.13l-3.51,18.27h-4.4l13.86-66.05ZM315.2,74.82l-7.99-39.14-7.91,39.14h15.9Z" fill="#fff"/><path d="M337.8,33.88h-13.21v-3.59h30.5v3.59h-12.88v62.46h-4.4v-62.46Z" fill="#fff"/><path d="M362.68,30.3h4.4v66.05h-4.4V30.3Z" fill="#fff"/><path d="M377.77,77.35v-28.05c0-11.33,3.43-19.73,16.06-19.73,11.5,0,15.08,7.34,15.08,18.59v3.34h-4.24v-3.34c0-9.38-2.2-14.92-10.85-14.92-9.54,0-11.58,6.28-11.58,15.58v29.19c0,9.78,2.45,15.58,11.58,15.58s10.85-5.95,10.85-15.01v-4h4.24v3.26c0,11.34-3.18,19.41-15.08,19.41-13.05,0-16.06-8.89-16.06-19.9Z" fill="#fff"/><path d="M46.54,166.24c5.95,0,7.91-.98,7.91-6.69v-50.88h14.6v51.54c0,10.76-3.43,16.23-15.41,16.23h-7.1v-10.19Z" fill="#fff"/><path d="M96.88,154.25v-45.58h14.43v47.79c0,4.16.49,8.73,5.14,8.73s5.06-4.57,5.06-8.73v-47.79h14.51v45.58c0,13.86-4.4,21.45-19.57,21.45s-19.57-7.58-19.57-21.45Z" fill="#fff"/><path d="M159.35,154.74l12.48-1.88c.16,8.56,2.12,11.74,5.79,11.74,3.02,0,3.67-2.53,3.67-4.81,0-5.46-2.77-8.73-7.26-12.56l-5.71-4.98c-5.06-4.24-8.89-9.21-8.89-17.21,0-11.17,7.09-17.29,18.51-17.29,14.11,0,16.15,11.01,16.39,18.76l-12.56,1.55c-.16-5.87-.57-9.62-4.32-9.62-2.69,0-3.91,2.85-3.91,5.14,0,4.89,2.53,7.5,6.36,10.85l5.46,4.81c5.71,4.89,10.27,10.68,10.27,19.82s-6.77,16.63-17.29,16.63c-12.48,0-18.51-6.28-19-20.96Z" fill="#fff"/><path d="M226.88,120h-9.95v-10.85h34.49v10.85h-9.87v55.21h-14.68v-55.21Z" fill="#fff"/><path d="M276.95,108.67h14.6v66.05h-14.6v-66.05Z" fill="#fff"/><path d="M315.93,153.68v-23.81c0-13.7,4.73-22.1,19.82-22.1s19,7.83,19,19.08v5.71h-14.27v-6.6c0-3.83-.08-7.91-4.73-7.91s-5.06,4.16-5.06,8.15v31.07c0,4.48.73,8.07,5.06,8.07,4.57,0,4.73-4.08,4.73-8.07v-6.93h14.27v5.71c0,11.25-4.24,19.65-19,19.65s-19.82-8.64-19.82-22.02Z" fill="#fff"/><path d="M379.07,108.67h29.68v9.95h-15.08v16.39h11.5v10.11h-11.5v19.73h15.25v9.87h-29.85v-66.05Z" fill="#fff"/><path d="M419.74,187.34h16.76l-.14-174.67h-16.76V0h34.21l.14,200h-34.21v-12.66Z" fill="#fff"/><path d="M34.21,187.34h-16.76l.14-174.67h16.76V0H.14l-.14,200h34.21v-12.66Z" fill="#fff"/></svg>